<svg xmlns="http://www.w3.org/2000/svg" width="16" height="16" viewBox="0 0 52 52" fill="currentColor">
  <path d="M 20 37.5 c 0 -0.8 -0.7 -1.5 -1.5 -1.5 h -15 C 2.7 36 2 36.7 2 37.5 v 11 C 2 49.3 2.7 50 3.5 50 h 15 c 0.8 0 1.5 -0.7 1.5 -1.5 V 37.5 z M 8.1 22 H 3.2 c -1 0 -1.5 0.9 -0.9 1.4 l 8 8.3 c 0.4 0.3 1 0.3 1.4 0 l 8 -8.3 c 0.6 -0.6 0.1 -1.4 -0.9 -1.4 h -4.7 c 0 -5 4.9 -10 9.9 -10 V 6 C 15 6 8.1 13 8.1 22 z M 41.8 20.3 c -0.4 -0.3 -1 -0.3 -1.4 0 l -8 8.3 c -0.6 0.6 -0.1 1.4 0.9 1.4 h 4.8 c 0 6 -4.1 10 -10.1 10 v 6 c 9 0 16.1 -7 16.1 -16 H 49 c 1 0 1.5 -0.9 0.9 -1.4 L 41.8 20.3 z M 50 3.5 C 50 2.7 49.3 2 48.5 2 h -15 C 32.7 2 32 2.7 32 3.5 v 11 c 0 0.8 0.7 1.5 1.5 1.5 h 15 c 0.8 0 1.5 -0.7 1.5 -1.5 V 3.5 z"/>
</svg>