<svg xmlns="http://www.w3.org/2000/svg" viewBox="0 0 24 24" width="24" height="24">
  <path fill="#038387" d="M11.272 7.25a.75.75 0 0 1 .75-.75h4.728a.75.75 0 0 1 .75.75v4.729a.75.75 0 0 1-1.5 0V9.06l-5.22 5.22a.75.75 0 1 1-1.06-1.061L14.94 8h-2.918a.75.75 0 0 1-.75-.75m-5.115-2A3.25 3.25 0 0 1 9.25 3h8.5A3.25 3.25 0 0 1 21 6.25v8.588a3.25 3.25 0 0 1-2 3.001v.136c0 1.05-.53 1.845-1.309 2.344c-.75.48-1.717.686-2.693.68h-.002l-4.077-.004H7c-1.157 0-2.164-.362-2.89-1.045c-.727-.686-1.11-1.64-1.11-2.7V8.5c0-.865.216-1.683.734-2.296c.534-.633 1.31-.954 2.222-.954zM6 6.75h-.044c-.544 0-.871.179-1.076.421c-.22.262-.38.694-.38 1.329v8.75c0 .69.242 1.234.64 1.608c.4.377 1.017.637 1.86.637l3.994.004l4.077.004c.72.004 1.38-.163 1.848-.46c.435-.278.581-.62.581-1.068V17.5H9.25A3.25 3.25 0 0 1 6 14.25z"/>
</svg>
