<svg xmlns="http://www.w3.org/2000/svg" viewBox="0 0 24 24" width="24" height="24">
  <path fill="#616161" d="M12.012 2.25c.734.008 1.465.093 2.182.253a.75.75 0 0 1 .582.649l.17 1.527a1.384 1.384 0 0 0 1.927 1.116l1.4-.615a.75.75 0 0 1 .85.174a9.8 9.8 0 0 1 2.205 3.792a.75.75 0 0 1-.272.825l-1.241.916a1.38 1.38 0 0 0 0 2.226l1.243.915a.75.75 0 0 1 .272.826a9.8 9.8 0 0 1-2.204 3.792a.75.75 0 0 1-.849.175l-1.406-.617a1.38 1.38 0 0 0-1.926 1.114l-.17 1.526a.75.75 0 0 1-.571.647a9.5 9.5 0 0 1-4.406 0a.75.75 0 0 1-.572-.647l-.169-1.524a1.382 1.382 0 0 0-1.925-1.11l-1.406.616a.75.75 0 0 1-.85-.175a9.8 9.8 0 0 1-2.203-3.796a.75.75 0 0 1 .272-.826l1.243-.916a1.38 1.38 0 0 0 0-2.226l-1.243-.914a.75.75 0 0 1-.272-.826a9.8 9.8 0 0 1 2.204-3.792a.75.75 0 0 1 .85-.174l1.4.615a1.385 1.385 0 0 0 1.93-1.118l.17-1.526a.75.75 0 0 1 .583-.65c.717-.159 1.45-.243 2.201-.252M12 8.25a3.75 3.75 0 1 0 0 7.5a3.75 3.75 0 0 0 0-7.5M9.75 12a2.25 2.25 0 1 1 4.5 0a2.25 2.25 0 0 1-4.5 0"/>
</svg>
