<svg xmlns="http://www.w3.org/2000/svg" viewBox="0 0 48 48" width="48" height="48">
  <!-- Tile background: neutral rounded square like Kezayit home tiles -->
  <rect width="48" height="48" rx="12" ry="12" fill="#F0F0F0"/>

  <!-- Globe icon — Fluent filled style, blue #3478f6 -->
  <g fill="#3478f6">
    <!-- Outer circle ring -->
    <path d="M24 4C13 4 4 13 4 24s9 20 20 20 20-9 20-20S35 4 24 4z
             M24 7c1.8 0 4.2 2.8 5.8 7.5H18.2C19.8 9.8 22.2 7 24 7z
             M14.5 14.5h-4.2A17 17 0 0 1 18 8.8c-1.5 2-2.7 4.5-3.5 5.7z
             M10.3 17.5h4.9c-.3 2-.5 4.2-.5 6.5H7.1a17 17 0 0 1 3.2-6.5z
             M7.1 27h7.6c.1 2.3.3 4.5.6 6.5h-4.9A17 17 0 0 1 7.1 27z
             M10.3 36.5h4.2c.8 1.2 2 3.7 3.5 5.7a17 17 0 0 1-7.7-5.7z
             M18.2 40.5c1.6 4.7 4 7.5 5.8 7.5s4.2-2.8 5.8-7.5H18.2z
             M33.5 36.5h4.2a17 17 0 0 1-7.7 5.7c1.5-2 2.7-4.5 3.5-5.7z
             M40.9 33.5h-4.9c.3-2 .5-4.2.6-6.5h7.6a17 17 0 0 1-3.3 6.5z
             M40.9 17.5A17 17 0 0 1 44 24h-7.6c-.1-2.3-.3-4.5-.6-6.5h4.9z
             M37.7 14.5c-.8-1.2-2-3.7-3.5-5.7a17 17 0 0 1 7.7 5.7h-4.2z
             M17.5 17.5h13c.3 2 .5 4.2.5 6.5H17c0-2.3.2-4.5.5-6.5z
             M17 27h14c-.1 2.3-.3 4.5-.6 6.5h-12.8C17.3 31.5 17.1 29.3 17 27z"/>
  </g>
</svg>
